<svg xmlns="http://www.w3.org/2000/svg" xmlns:xlink="http://www.w3.org/1999/xlink" version="1.1" width="256" height="256" viewBox="0 0 256 256" xml:space="preserve">
<g style="stroke: none; stroke-width: 0; stroke-dasharray: none; stroke-linecap: butt; stroke-linejoin: miter; stroke-miterlimit: 10; fill: none; fill-rule: nonzero; opacity: 1;" transform="translate(1.4065934065934016 1.4065934065934016) scale(2.81 2.81)">
	<path d="M 21.326 70.101 c 2.381 1.47 -0.863 10.765 -4.475 18.893 h 34.487 c 2.313 -5.523 6.164 -10.628 9.015 -9.766 c 11.36 1.405 14.165 0.565 16.524 -2.203 c 1.351 -1.867 1.006 -4.42 0 -7.239 c -0.372 -1.211 2.751 -0.939 2.833 -2.36 c 0.108 -2.353 -2.987 -2.516 -4.878 -3.462 c 2.154 -0.118 6.046 -1.008 5.508 -2.675 c -0.548 -1.401 -2.639 -4.524 -0.787 -4.721 c 2.214 -0.297 5.234 -2.029 4.878 -3.619 c -0.436 -2.131 -8.224 -7.723 -8.34 -13.376 c -0.155 -11.86 -2.014 -19.139 -5.508 -25.021 C 56.829 -6.778 16.333 -2.808 6.804 25.69 C 3.099 36.197 7.426 61.662 21.326 70.101 z" style="stroke: none; stroke-width: 1; stroke-dasharray: none; stroke-linecap: butt; stroke-linejoin: miter; stroke-miterlimit: 10; fill: rgb(254,197,165); fill-rule: nonzero; opacity: 1;" transform=" matrix(1 0 0 1 0 0) " stroke-linecap="round"/>
	<circle cx="54.695" cy="62.795" r="3.645" style="stroke: none; stroke-width: 1; stroke-dasharray: none; stroke-linecap: butt; stroke-linejoin: miter; stroke-miterlimit: 10; fill: rgb(96,163,208); fill-rule: nonzero; opacity: 1;" transform="  matrix(1 0 0 1 0 0) "/>
	<circle cx="24.775" cy="54.545" r="3.645" style="stroke: none; stroke-width: 1; stroke-dasharray: none; stroke-linecap: butt; stroke-linejoin: miter; stroke-miterlimit: 10; fill: rgb(96,163,208); fill-rule: nonzero; opacity: 1;" transform="  matrix(1 0 0 1 0 0) "/>
	<circle cx="46.925000000000004" cy="12.875" r="3.645" style="stroke: none; stroke-width: 1; stroke-dasharray: none; stroke-linecap: butt; stroke-linejoin: miter; stroke-miterlimit: 10; fill: rgb(96,163,208); fill-rule: nonzero; opacity: 1;" transform="  matrix(1 0 0 1 0 0) "/>
	<circle cx="62.98500000000001" cy="35.565000000000005" r="3.645" style="stroke: none; stroke-width: 1; stroke-dasharray: none; stroke-linecap: butt; stroke-linejoin: miter; stroke-miterlimit: 10; fill: rgb(96,163,208); fill-rule: nonzero; opacity: 1;" transform="  matrix(1 0 0 1 0 0) "/>
	<circle cx="19.565" cy="27.275" r="3.645" style="stroke: none; stroke-width: 1; stroke-dasharray: none; stroke-linecap: butt; stroke-linejoin: miter; stroke-miterlimit: 10; fill: rgb(96,163,208); fill-rule: nonzero; opacity: 1;" transform="  matrix(1 0 0 1 0 0) "/>
	<circle cx="41.355000000000004" cy="36.845000000000006" r="3.645" style="stroke: none; stroke-width: 1; stroke-dasharray: none; stroke-linecap: butt; stroke-linejoin: miter; stroke-miterlimit: 10; fill: rgb(96,163,208); fill-rule: nonzero; opacity: 1;" transform="  matrix(1 0 0 1 0 0) "/>
	<path d="M 54.698 67.443 c -2.562 0 -4.646 -2.084 -4.646 -4.645 c 0 -2.562 2.084 -4.646 4.646 -4.646 c 2.561 0 4.645 2.084 4.645 4.646 C 59.343 65.36 57.259 67.443 54.698 67.443 z M 54.698 60.152 c -1.459 0 -2.646 1.187 -2.646 2.646 s 1.187 2.645 2.646 2.645 c 1.459 0 2.645 -1.186 2.645 -2.645 S 56.157 60.152 54.698 60.152 z" style="stroke: none; stroke-width: 1; stroke-dasharray: none; stroke-linecap: butt; stroke-linejoin: miter; stroke-miterlimit: 10; fill: rgb(0,0,0); fill-rule: nonzero; opacity: 1;" transform=" matrix(1 0 0 1 0 0) " stroke-linecap="round"/>
	<path d="M 24.776 59.189 c -2.562 0 -4.645 -2.084 -4.645 -4.646 c 0 -2.561 2.084 -4.645 4.645 -4.645 s 4.645 2.084 4.645 4.645 C 29.421 57.105 27.337 59.189 24.776 59.189 z M 24.776 51.898 c -1.459 0 -2.646 1.186 -2.646 2.645 s 1.187 2.646 2.646 2.646 c 1.459 0 2.646 -1.187 2.646 -2.646 S 26.234 51.898 24.776 51.898 z" style="stroke: none; stroke-width: 1; stroke-dasharray: none; stroke-linecap: butt; stroke-linejoin: miter; stroke-miterlimit: 10; fill: rgb(0,0,0); fill-rule: nonzero; opacity: 1;" transform=" matrix(1 0 0 1 0 0) " stroke-linecap="round"/>
	<path d="M 46.927 17.522 c -2.562 0 -4.645 -2.084 -4.645 -4.645 s 2.084 -4.645 4.645 -4.645 c 2.561 0 4.645 2.084 4.645 4.645 S 49.489 17.522 46.927 17.522 z M 46.927 10.231 c -1.459 0 -2.646 1.187 -2.646 2.646 s 1.187 2.646 2.646 2.646 c 1.459 0 2.645 -1.187 2.645 -2.646 S 48.386 10.231 46.927 10.231 z" style="stroke: none; stroke-width: 1; stroke-dasharray: none; stroke-linecap: butt; stroke-linejoin: miter; stroke-miterlimit: 10; fill: rgb(0,0,0); fill-rule: nonzero; opacity: 1;" transform=" matrix(1 0 0 1 0 0) " stroke-linecap="round"/>
	<path d="M 62.986 40.212 c -2.562 0 -4.646 -2.084 -4.646 -4.645 c 0 -2.562 2.084 -4.645 4.646 -4.645 c 2.561 0 4.645 2.084 4.645 4.645 C 67.631 38.128 65.547 40.212 62.986 40.212 z M 62.986 32.921 c -1.459 0 -2.646 1.187 -2.646 2.646 c 0 1.459 1.187 2.646 2.646 2.646 c 1.459 0 2.645 -1.187 2.645 -2.646 C 65.631 34.108 64.445 32.921 62.986 32.921 z" style="stroke: none; stroke-width: 1; stroke-dasharray: none; stroke-linecap: butt; stroke-linejoin: miter; stroke-miterlimit: 10; fill: rgb(0,0,0); fill-rule: nonzero; opacity: 1;" transform=" matrix(1 0 0 1 0 0) " stroke-linecap="round"/>
	<path d="M 19.565 31.925 c -2.562 0 -4.645 -2.084 -4.645 -4.645 s 2.084 -4.645 4.645 -4.645 s 4.645 2.084 4.645 4.645 S 22.127 31.925 19.565 31.925 z M 19.565 24.634 c -1.459 0 -2.646 1.187 -2.646 2.646 c 0 1.459 1.187 2.646 2.646 2.646 c 1.459 0 2.646 -1.187 2.646 -2.646 C 22.211 25.82 21.024 24.634 19.565 24.634 z" style="stroke: none; stroke-width: 1; stroke-dasharray: none; stroke-linecap: butt; stroke-linejoin: miter; stroke-miterlimit: 10; fill: rgb(0,0,0); fill-rule: nonzero; opacity: 1;" transform=" matrix(1 0 0 1 0 0) " stroke-linecap="round"/>
	<path d="M 51.338 89.994 H 16.851 c -0.338 0 -0.654 -0.171 -0.838 -0.455 c -0.185 -0.284 -0.213 -0.642 -0.076 -0.951 c 5.899 -13.275 5.513 -17.228 4.866 -17.635 C 6.043 61.987 2.229 35.654 5.861 25.357 c 4.521 -13.522 16.747 -23.115 31.903 -25.02 c 14.17 -1.782 27.072 3.457 33.659 13.671 c 3.828 6.444 5.517 14.076 5.667 25.55 c 0.067 3.275 3.224 6.766 5.53 9.314 c 1.499 1.657 2.582 2.854 2.791 3.875 c 0.099 0.441 0.102 1.161 -0.472 1.982 c -1.035 1.486 -3.385 2.543 -5.13 2.811 c 0.082 0.534 0.628 1.633 0.908 2.196 c 0.223 0.448 0.426 0.862 0.554 1.187 c 0.213 0.655 0.119 1.277 -0.246 1.807 c -0.485 0.707 -1.454 1.213 -2.521 1.563 c 1.22 0.576 2.284 1.471 2.206 3.176 c -0.08 1.394 -1.401 1.858 -2.275 2.165 c -0.146 0.051 -0.336 0.117 -0.487 0.18 c 0.766 2.241 1.481 5.39 -0.259 7.795 c -2.893 3.401 -6.632 3.95 -17.458 2.61 c -0.057 -0.007 -0.112 -0.019 -0.167 -0.035 c -1.926 -0.584 -5.435 3.539 -7.804 9.195 C 52.105 89.752 51.741 89.994 51.338 89.994 z M 18.382 87.994 h 32.297 c 2.485 -5.645 6.401 -10.691 9.875 -9.749 c 11.391 1.404 13.58 0.458 15.562 -1.869 c 0.92 -1.277 0.879 -3.284 -0.181 -6.254 c -0.48 -1.561 1.143 -2.131 1.837 -2.374 c 0.298 -0.104 0.853 -0.3 0.962 -0.44 c 0.016 -0.758 -0.615 -1.11 -2.531 -1.75 c -0.615 -0.205 -1.251 -0.417 -1.819 -0.701 c -0.405 -0.204 -0.623 -0.654 -0.531 -1.098 c 0.093 -0.443 0.473 -0.769 0.925 -0.794 c 2.305 -0.126 4.442 -0.933 4.617 -1.394 c -0.097 -0.2 -0.275 -0.556 -0.468 -0.943 c -0.746 -1.501 -1.517 -3.052 -0.901 -4.175 c 0.159 -0.289 0.555 -0.787 1.422 -0.879 c 1.438 -0.194 3.251 -1.124 3.852 -1.986 c 0.121 -0.174 0.178 -0.327 0.157 -0.422 c -0.104 -0.503 -1.332 -1.861 -2.319 -2.953 c -2.516 -2.782 -5.963 -6.592 -6.046 -10.621 c -0.145 -11.107 -1.751 -18.441 -5.367 -24.531 c -6.147 -9.53 -18.302 -14.425 -31.71 -12.739 C 23.628 4.13 12.033 13.205 7.752 26.006 c -3.364 9.539 0.373 34.911 14.093 43.24 c 0.002 0.001 0.004 0.002 0.006 0.004 C 22.771 69.818 25.518 71.512 18.382 87.994 z" style="stroke: none; stroke-width: 1; stroke-dasharray: none; stroke-linecap: butt; stroke-linejoin: miter; stroke-miterlimit: 10; fill: rgb(0,0,0); fill-rule: nonzero; opacity: 1;" transform=" matrix(1 0 0 1 0 0) " stroke-linecap="round"/>
	<path d="M 60.354 80.229 c -0.052 0 -0.104 -0.004 -0.157 -0.013 l -11.351 -1.799 c -0.546 -0.086 -0.918 -0.599 -0.831 -1.143 c 0.087 -0.546 0.601 -0.92 1.143 -0.831 l 11.351 1.799 c 0.546 0.086 0.918 0.599 0.831 1.143 C 61.262 79.878 60.838 80.229 60.354 80.229 z" style="stroke: none; stroke-width: 1; stroke-dasharray: none; stroke-linecap: butt; stroke-linejoin: miter; stroke-miterlimit: 10; fill: rgb(0,0,0); fill-rule: nonzero; opacity: 1;" transform=" matrix(1 0 0 1 0 0) " stroke-linecap="round"/>
	<path d="M 41.354 41.49 c -2.562 0 -4.645 -2.084 -4.645 -4.645 s 2.084 -4.645 4.645 -4.645 S 46 34.283 46 36.844 S 43.916 41.49 41.354 41.49 z M 41.354 34.199 c -1.459 0 -2.646 1.187 -2.646 2.646 s 1.187 2.646 2.646 2.646 S 44 38.303 44 36.844 S 42.813 34.199 41.354 34.199 z" style="stroke: none; stroke-width: 1; stroke-dasharray: none; stroke-linecap: butt; stroke-linejoin: miter; stroke-miterlimit: 10; fill: rgb(0,0,0); fill-rule: nonzero; opacity: 1;" transform=" matrix(1 0 0 1 0 0) " stroke-linecap="round"/>
	<path d="M 38.017 36.38 c -0.134 0 -0.27 -0.027 -0.401 -0.085 L 22.5 29.659 c -0.506 -0.222 -0.736 -0.812 -0.514 -1.317 c 0.222 -0.506 0.811 -0.736 1.317 -0.514 l 15.116 6.636 c 0.506 0.222 0.736 0.812 0.514 1.317 C 38.768 36.156 38.402 36.38 38.017 36.38 z" style="stroke: none; stroke-width: 1; stroke-dasharray: none; stroke-linecap: butt; stroke-linejoin: miter; stroke-miterlimit: 10; fill: rgb(0,0,0); fill-rule: nonzero; opacity: 1;" transform=" matrix(1 0 0 1 0 0) " stroke-linecap="round"/>
	<path d="M 22.791 26.582 c -0.359 0 -0.707 -0.194 -0.886 -0.534 c -0.257 -0.489 -0.07 -1.093 0.419 -1.35 L 43.237 13.69 c 0.489 -0.256 1.095 -0.069 1.35 0.419 c 0.257 0.489 0.07 1.093 -0.419 1.35 L 23.256 26.466 C 23.107 26.544 22.948 26.582 22.791 26.582 z" style="stroke: none; stroke-width: 1; stroke-dasharray: none; stroke-linecap: butt; stroke-linejoin: miter; stroke-miterlimit: 10; fill: rgb(0,0,0); fill-rule: nonzero; opacity: 1;" transform=" matrix(1 0 0 1 0 0) " stroke-linecap="round"/>
	<path d="M 60.882 33.593 c -0.313 0 -0.622 -0.147 -0.817 -0.422 L 48.186 16.386 c -0.319 -0.451 -0.212 -1.075 0.238 -1.394 c 0.453 -0.319 1.075 -0.211 1.394 0.239 l 11.878 16.785 c 0.319 0.451 0.212 1.075 -0.238 1.394 C 61.283 33.534 61.081 33.593 60.882 33.593 z" style="stroke: none; stroke-width: 1; stroke-dasharray: none; stroke-linecap: butt; stroke-linejoin: miter; stroke-miterlimit: 10; fill: rgb(0,0,0); fill-rule: nonzero; opacity: 1;" transform=" matrix(1 0 0 1 0 0) " stroke-linecap="round"/>
	<path d="M 42.181 34.296 c -0.075 0 -0.151 -0.008 -0.228 -0.026 c -0.538 -0.125 -0.872 -0.663 -0.747 -1.201 l 3.9 -16.774 c 0.125 -0.538 0.663 -0.872 1.201 -0.747 c 0.538 0.125 0.872 0.663 0.747 1.201 l -3.9 16.774 C 43.046 33.984 42.635 34.296 42.181 34.296 z" style="stroke: none; stroke-width: 1; stroke-dasharray: none; stroke-linecap: butt; stroke-linejoin: miter; stroke-miterlimit: 10; fill: rgb(0,0,0); fill-rule: nonzero; opacity: 1;" transform=" matrix(1 0 0 1 0 0) " stroke-linecap="round"/>
	<path d="M 44.999 37.844 c -0.512 0 -0.949 -0.391 -0.995 -0.911 c -0.049 -0.55 0.357 -1.036 0.907 -1.085 l 14.34 -1.278 c 0.562 -0.038 1.036 0.357 1.085 0.907 c 0.049 0.55 -0.357 1.036 -0.907 1.085 l -14.34 1.278 C 45.059 37.843 45.028 37.844 44.999 37.844 z" style="stroke: none; stroke-width: 1; stroke-dasharray: none; stroke-linecap: butt; stroke-linejoin: miter; stroke-miterlimit: 10; fill: rgb(0,0,0); fill-rule: nonzero; opacity: 1;" transform=" matrix(1 0 0 1 0 0) " stroke-linecap="round"/>
	<path d="M 24.091 51.964 c -0.471 0 -0.89 -0.333 -0.981 -0.812 l -3.843 -20.106 c -0.104 -0.542 0.252 -1.066 0.795 -1.17 c 0.54 -0.098 1.066 0.252 1.17 0.795 l 3.843 20.106 c 0.104 0.542 -0.252 1.066 -0.795 1.17 C 24.216 51.958 24.153 51.964 24.091 51.964 z" style="stroke: none; stroke-width: 1; stroke-dasharray: none; stroke-linecap: butt; stroke-linejoin: miter; stroke-miterlimit: 10; fill: rgb(0,0,0); fill-rule: nonzero; opacity: 1;" transform=" matrix(1 0 0 1 0 0) " stroke-linecap="round"/>
	<path d="M 51.188 62.829 c -0.089 0 -0.178 -0.012 -0.267 -0.036 l -22.766 -6.28 c -0.532 -0.146 -0.845 -0.697 -0.698 -1.229 c 0.146 -0.532 0.693 -0.846 1.23 -0.698 l 22.765 6.28 c 0.532 0.146 0.846 0.697 0.698 1.229 C 52.028 62.538 51.626 62.829 51.188 62.829 z" style="stroke: none; stroke-width: 1; stroke-dasharray: none; stroke-linecap: butt; stroke-linejoin: miter; stroke-miterlimit: 10; fill: rgb(0,0,0); fill-rule: nonzero; opacity: 1;" transform=" matrix(1 0 0 1 0 0) " stroke-linecap="round"/>
	<path d="M 27.261 52.889 c -0.245 0 -0.491 -0.09 -0.684 -0.27 c -0.403 -0.377 -0.424 -1.01 -0.046 -1.413 l 11.606 -12.388 c 0.378 -0.404 1.01 -0.424 1.413 -0.046 c 0.403 0.378 0.424 1.011 0.046 1.413 L 27.991 52.572 C 27.794 52.782 27.528 52.889 27.261 52.889 z" style="stroke: none; stroke-width: 1; stroke-dasharray: none; stroke-linecap: butt; stroke-linejoin: miter; stroke-miterlimit: 10; fill: rgb(0,0,0); fill-rule: nonzero; opacity: 1;" transform=" matrix(1 0 0 1 0 0) " stroke-linecap="round"/>
	<path d="M 55.759 60.31 c -0.096 0 -0.194 -0.014 -0.291 -0.043 c -0.528 -0.161 -0.826 -0.72 -0.666 -1.248 l 6.165 -20.256 c 0.161 -0.528 0.718 -0.829 1.248 -0.665 c 0.528 0.161 0.826 0.719 0.666 1.247 l -6.165 20.256 C 56.584 60.033 56.188 60.31 55.759 60.31 z" style="stroke: none; stroke-width: 1; stroke-dasharray: none; stroke-linecap: butt; stroke-linejoin: miter; stroke-miterlimit: 10; fill: rgb(0,0,0); fill-rule: nonzero; opacity: 1;" transform=" matrix(1 0 0 1 0 0) " stroke-linecap="round"/>
	<path d="M 53.033 60.557 c -0.363 0 -0.713 -0.198 -0.891 -0.543 L 42.131 40.542 c -0.253 -0.491 -0.059 -1.094 0.432 -1.346 c 0.49 -0.252 1.094 -0.06 1.346 0.432 l 10.012 19.473 c 0.252 0.491 0.059 1.094 -0.433 1.347 C 53.343 60.522 53.186 60.557 53.033 60.557 z" style="stroke: none; stroke-width: 1; stroke-dasharray: none; stroke-linecap: butt; stroke-linejoin: miter; stroke-miterlimit: 10; fill: rgb(0,0,0); fill-rule: nonzero; opacity: 1;" transform=" matrix(1 0 0 1 0 0) " stroke-linecap="round"/>
</g>
</svg>